<?xml version="1.0" encoding="UTF-8" standalone="no"?>
<svg
   xmlns:dc="http://purl.org/dc/elements/1.1/"
   xmlns:cc="http://creativecommons.org/ns#"
   xmlns:rdf="http://www.w3.org/1999/02/22-rdf-syntax-ns#"
   xmlns:svg="http://www.w3.org/2000/svg"
   xmlns="http://www.w3.org/2000/svg"
   viewBox="0 0 1866.6533 1306.6667"
   height="1306.6667"
   width="1866.6533"
   xml:space="preserve"
   id="svg2"
   version="1.1"><metadata
     id="metadata8"><rdf:RDF><cc:Work
         rdf:about=""><dc:format>image/svg+xml</dc:format><dc:type
           rdf:resource="http://purl.org/dc/dcmitype/StillImage" /></cc:Work></rdf:RDF></metadata><defs
     id="defs6" /><g
     transform="matrix(1.3333333,0,0,-1.3333333,0,1306.6667)"
     id="g10"><g
       transform="scale(0.1)"
       id="g12"><path
         id="path14"
         style="fill:#7f6791;fill-opacity:1;fill-rule:nonzero;stroke:none"
         d="M 13999.9,0 H 0 V 9800 H 13999.9 V 0" /><path
         id="path16"
         style="fill:#ffffff;fill-opacity:1;fill-rule:nonzero;stroke:none"
         d="m 2776.32,2917.86 c 44.76,-40.38 251.93,-213.51 514.93,-213.51 170.06,0 330.52,71.88 477.2,213.51 -146.68,141.66 -307.14,213.52 -477.2,213.52 -263,0 -470.17,-173.13 -514.93,-213.52 z m 514.93,-236.97 c -309,0 -538.36,226.49 -540.64,228.78 l -7.94,8.19 7.94,8.26 c 2.28,2.25 231.64,228.73 540.64,228.73 179.7,0 348.76,-76.91 502.34,-228.62 l 8.48,-8.37 -8.48,-8.31 c -153.58,-151.77 -322.64,-228.66 -502.34,-228.66" /><path
         id="path18"
         style="fill:#ffffff;fill-opacity:1;fill-rule:nonzero;stroke:none"
         d="m 3287.14,2869.94 c -53.59,0 -96.97,43.36 -96.97,96.94 0,53.53 43.38,96.94 96.97,96.94 53.51,0 96.96,-43.41 96.96,-96.94 0,-53.58 -43.45,-96.94 -96.96,-96.94 z m 0,273.18 c -97.39,0 -176.31,-78.91 -176.31,-176.24 0,-97.38 78.92,-176.29 176.31,-176.29 97.35,0 176.26,78.91 176.26,176.29 0,97.33 -78.91,176.24 -176.26,176.24" /><path
         id="path20"
         style="fill:#ffffff;fill-opacity:1;fill-rule:nonzero;stroke:none"
         d="m 3272.35,3560.15 c -171.66,0 -333.01,-66.83 -454.33,-188.19 -121.35,-121.23 -188.19,-282.56 -188.19,-454.25 0,-171.66 66.84,-333 188.19,-454.35 121.15,-121.13 282.47,-187.85 454.29,-187.85 171.77,0 333.16,66.72 454.36,187.85 121.36,121.42 188.19,282.73 188.19,454.25 0,171.52 -66.83,332.89 -188.19,454.35 -121.35,121.36 -282.71,188.19 -454.32,188.19 z m 0,-1327.51 c -183.27,0 -355.39,71.17 -484.69,200.34 -129.37,129.59 -200.61,301.69 -200.61,484.73 0,182.97 71.24,355.03 200.61,484.58 129.53,129.49 301.68,200.77 484.69,200.77 182.95,0 355.09,-71.28 484.6,-200.77 129.45,-129.55 200.75,-301.65 200.75,-484.68 0,-182.98 -71.3,-355.04 -200.75,-484.63 -129.24,-129.17 -301.36,-200.34 -484.6,-200.34" /><path
         id="path22"
         style="fill:#ffffff;fill-opacity:1;fill-rule:nonzero;stroke:none"
         d="m 2222.31,1567.55 c -40,-39.97 -93.27,-61.98 -150.01,-61.98 -56.72,0 -110,22.01 -150,61.98 -38.37,38.42 -60.41,93.09 -60.41,150.09 0,57 22.04,111.71 60.41,150.04 l 584.2,584.24 18.75,-28.45 c 33.48,-50.96 71.47,-97.75 113.56,-139.8 1.24,-1.32 2.48,-2.35 5.38,-4.91 40.74,-40 85.81,-76.45 133.94,-108.23 l 28.39,-18.74 z m 630.26,607.93 c -11.24,6.25 -22.55,12.74 -33.74,19.75 -52.59,33.11 -101.29,71.53 -143.89,113.31 l -6.08,5.59 c -53.05,53.1 -99.71,114.83 -138.74,183.6 l -13.9,24.59 -624.28,-624.27 c -48.09,-48.22 -74.58,-112.35 -74.58,-180.48 0,-68.12 26.49,-132.12 74.58,-180.23 48.09,-48.14 112.14,-74.61 180.36,-74.61 68.2,0 132.25,26.47 180.29,74.61 l 624.21,624.37 -24.23,13.77" /><path
         id="path24"
         style="fill:#ffffff;fill-opacity:1;fill-rule:nonzero;stroke:none"
         d="M 11665.2,2989.94 V 1541.61 H 10555.6 V 2989.94 Z M 10518,1503.88 h 1184.8 v 1523.7 H 10518 v -1523.7" /><path
         id="path26"
         style="fill:#ffffff;fill-opacity:1;fill-rule:nonzero;stroke:none"
         d="m 10910.4,3059.32 h 400.1 c 10.3,0 18.7,8.43 18.7,18.81 v 69.7 h 448.3 V 1408.72 h -1334.1 v 1739.11 h 448.2 v -69.7 c 0,-10.38 8.4,-18.81 18.8,-18.81 z m 381.3,37.68 h -362.6 v 165.08 h 73.8 c 9.5,0 17.6,7.12 18.7,16.52 5.6,44.88 43.8,78.73 88.7,78.73 45,0 83.3,-33.87 89,-78.79 1.3,-9.38 9.2,-16.46 18.6,-16.46 h 73.8 v -76.69 -4.95 -27.68 -4.93 z m 37.5,88.39 v 95.49 c 0,10.58 -8.2,18.84 -18.7,18.84 h -77.1 c -14.7,56.21 -65,95.29 -123.1,95.29 -57.9,0 -108.2,-39.08 -122.9,-95.29 h -77 c -10.4,0 -18.8,-8.47 -18.8,-18.84 v -95.49 h -485.8 V 1371.04 H 11815 v 1814.35 h -485.8" /><path
         id="path28"
         style="fill:#ffffff;fill-opacity:1;fill-rule:nonzero;stroke:none"
         d="m 11102.7,2736.38 h -417.2 v -49.95 h 417.2 v 49.95" /><path
         id="path30"
         style="fill:#ffffff;fill-opacity:1;fill-rule:nonzero;stroke:none"
         d="m 11102.7,2560.82 h -417.2 v -49.88 h 417.2 v 49.88" /><path
         id="path32"
         style="fill:#ffffff;fill-opacity:1;fill-rule:nonzero;stroke:none"
         d="m 11527.4,2385.31 h -841.9 v -49.86 h 841.9 v 49.86" /><path
         id="path34"
         style="fill:#ffffff;fill-opacity:1;fill-rule:nonzero;stroke:none"
         d="m 11527.4,2209.77 h -841.9 v -49.93 h 841.9 v 49.93" /><path
         id="path36"
         style="fill:#ffffff;fill-opacity:1;fill-rule:nonzero;stroke:none"
         d="m 11527.4,2034.28 h -841.9 v -49.95 h 841.9 v 49.95" /><path
         id="path38"
         style="fill:#ffffff;fill-opacity:1;fill-rule:nonzero;stroke:none"
         d="m 11527.4,1858.61 h -841.9 v -49.79 h 841.9 v 49.79" /><path
         id="path40"
         style="fill:#ffffff;fill-opacity:1;fill-rule:nonzero;stroke:none"
         d="m 11215,2514.19 v 255.11 h 280.1 v -255.11 z m 324.7,299.71 h -369.4 v -344.35 h 369.4 v 344.35" /><path
         id="path42"
         style="fill:#ffffff;fill-opacity:1;fill-rule:nonzero;stroke:none"
         d="m 10498.2,5694.35 c 61.8,-29.89 127.5,-45.03 195.5,-45.03 47.7,0 95,7.63 140.8,22.65 69.1,22.85 132.3,62.45 182.7,114.58 33.2,34.38 60.6,73.62 81.4,116.55 14.6,30.05 25.8,61.84 33.4,94.41 29.5,126.97 1.3,261.22 -77.6,368.36 l -1.4,2.02 h -56.3 l 6.8,-8.14 c 82,-98.08 114,-229.73 85.5,-352.21 -6.7,-29.16 -16.9,-57.85 -30.2,-85.26 -18.7,-38.66 -43.4,-74 -73.3,-105.14 -45.5,-47.04 -102.5,-82.72 -164.8,-103.16 -41.3,-13.62 -84.1,-20.52 -127.1,-20.52 -61.2,0 -120.4,13.66 -176.1,40.65 -201,97.32 -285.5,340.1 -188.3,541.19 14.2,29.27 32.7,57.7 55.1,84.45 l 6.8,8.14 h -56.9 l -1.5,-2.02 c -17,-23.16 -31.5,-47.16 -43.2,-71.36 -107.8,-222.96 -14.2,-492.17 208.7,-600.16" /><path
         id="path44"
         style="fill:#ffffff;fill-opacity:1;fill-rule:nonzero;stroke:none"
         d="m 11495.9,6049.56 c -28.1,2.66 -55.2,10.17 -80.6,22.29 -57.3,27.73 -100.4,76.13 -121.3,136.3 -17.4,49.96 -17.8,102.97 -1,153.23 l 2.2,6.51 h -46.5 l -1,-3.61 c -16.2,-56.22 -14.6,-115.23 4.6,-170.56 24.7,-71.3 75.9,-128.68 144,-161.51 23.1,-11.19 47.7,-19.13 73.3,-23.63 -6.5,-54.98 -18.9,-109.39 -36.9,-161.74 -1,-2.83 -1.9,-5.61 -2.9,-8.4 -52.7,13.9 -109.6,12.19 -161.3,-4.77 -55.1,-18.23 -102.4,-52.03 -136.7,-97.73 -11.4,-14.99 -21.2,-30.94 -29.1,-47.43 -39.3,-81.09 -38.1,-172.9 3.2,-252.66 -48.1,-29.82 -99.8,-54.53 -154,-73.5 -27.2,61.34 -75.2,111.05 -135.6,140.36 -38.9,18.71 -80.3,28.2 -123,28.2 -30,0 -59.7,-4.77 -88.5,-14.22 -73.4,-24.24 -132.4,-75.94 -166.3,-145.71 -1.3,-2.75 -2.5,-5.5 -3.7,-8.24 -27.7,9.72 -54.3,20.64 -80.9,33.26 -26,12.81 -51.7,27.21 -76.4,42.75 1.6,2.78 3,5.61 4.3,8.48 33,67.84 37.5,144.51 12.7,215.88 -24.9,71.28 -76,128.7 -143.9,161.69 -60.4,29.01 -128.3,35.47 -194.07,18.87 -18.62,53.86 -31.48,109.89 -38.13,166.65 87.2,17.24 161.9,74.55 200.4,154.08 30,62.31 36.2,133.28 17.4,199.88 l -1,3.61 h -46.9 l 2.1,-6.51 c 19.4,-59.12 15.3,-122.29 -11.3,-177.74 -28.3,-58.46 -78.1,-101.96 -140.18,-122.4 -15.45,-5.07 -31.28,-8.56 -47.17,-10.42 l -21.25,-2.54 1.89,-21.38 c 6.74,-74.82 23.51,-148.15 50.07,-218.62 l 10.23,-18.09 19.48,6.34 c 24.63,8.14 50.03,12.24 75.63,12.24 36.1,0 70.9,-7.97 103.6,-23.65 57.3,-27.81 100.4,-76.33 121.3,-136.54 21,-60.25 17.2,-124.96 -10.7,-182.26 -4,-8.52 -8.7,-16.27 -12.8,-22.69 l -11.6,-18.13 17.9,-12.16 c 32.3,-21.45 65.7,-40.65 99.2,-57.11 36,-17.04 70.8,-30.83 106.2,-42.08 l 20.2,-6.44 7.3,19.98 c 3.1,8.95 6.4,16.93 9.9,24.32 28.5,58.7 78.3,102.3 140.2,122.71 24.4,8.01 49.6,12.05 74.9,12.05 36.1,0 71,-7.99 103.7,-23.78 57,-27.69 100,-75.87 121,-135.61 l 7.2,-20.18 27.1,8.72 c 69.1,22.77 134.8,54.44 195.2,94.09 l 17.9,11.82 -11.3,18.24 c -43.1,69.84 -47.5,155.57 -11.7,229.3 6.6,13.95 14.8,27.38 24.4,39.97 43.6,57.81 117.7,93.71 193.3,93.71 26.3,0 51.8,-4.27 75.8,-12.7 l 20.3,-7.05 7.6,20.02 c 3.8,9.71 7.3,19.55 10.6,29.31 21.6,62.92 35.5,127.82 41.2,192.91 l 2.1,21.93 -21.9,2.09" /><path
         id="path46"
         style="fill:#ffffff;fill-opacity:1;fill-rule:nonzero;stroke:none"
         d="m 12021.9,7729.01 -33,19.17 10.9,36.59 c 10.9,36.6 16.5,75.43 16.5,115.48 0,225.28 -183.1,408.55 -408.2,408.55 -54.6,0 -107.6,-10.76 -157.6,-32.02 l -31.1,-13.25 -23.2,24.59 c -212,224.9 -510.6,353.88 -819.3,353.88 -508.5,0 -955.66,-342.65 -1087.43,-833.26 l -6.11,-22.92 -21.92,-9.22 c -305.71,-128.94 -503.29,-426.05 -503.29,-756.98 0,-453.21 368.73,-821.91 821.93,-821.91 h 206.08 l 23.34,50.02 h -229.42 c -425.7,0 -772.04,346.25 -772.04,771.89 0,321.63 203.33,612.7 505.83,724.26 l 12.65,4.49 2.87,12.93 c 113.74,489.26 544.51,830.99 1047.51,830.99 315.4,0 613.5,-137.55 818.2,-377.44 l 13.6,-15.68 18.2,10.73 c 55.4,32.14 118.1,49.11 181.2,49.11 198,0 359,-160.94 359,-358.76 0,-52.56 -11.7,-103.9 -34.7,-152.61 l -10.7,-22.85 22.2,-10.73 c 268.9,-130.22 436,-396.32 436,-694.44 0,-416.69 -339.3,-762.51 -756.3,-770.88 l -6.8,-1.01 h -256.2 l 21.1,-50.02 h 242.2 l 19.9,0.26 49.2,5.12 c 413.2,43.24 736.9,401.89 736.9,816.53 0,295.64 -152.5,560.82 -408,709.39" /><path
         id="path48"
         style="fill:#ffffff;fill-opacity:1;fill-rule:nonzero;stroke:none"
         d="m 12022,3451.35 -33,19.16 10.8,36.58 c 11,36.62 16.5,75.44 16.5,115.5 0,225.28 -183,408.55 -408.1,408.55 -54.6,0 -107.6,-10.78 -157.6,-32.02 l -31.2,-13.26 -23.1,24.6 c -212,224.9 -510.6,353.88 -819.4,353.88 -508.4,0 -955.57,-342.64 -1087.35,-833.27 l -6.12,-22.92 -21.93,-9.2 c -305.71,-128.97 -503.26,-426.07 -503.26,-757 0,-453.2 368.71,-821.91 821.92,-821.91 h 562.74 v 50.02 h -562.74 c -425.72,0 -772.05,346.26 -772.05,771.89 0,321.63 203.34,612.71 505.83,724.26 l 12.67,4.5 2.86,12.93 c 113.73,489.25 544.43,830.99 1047.43,830.99 315.4,0 613.6,-137.55 818.3,-377.42 l 13.6,-15.7 18.1,10.72 c 55.5,32.15 118.2,49.12 181.3,49.12 198,0 359,-160.94 359,-358.76 0,-52.56 -11.7,-103.91 -34.7,-152.62 l -10.7,-22.85 22.2,-10.72 c 268.9,-130.23 436,-396.32 436,-694.45 0,-328.1 -210.8,-611.49 -503.9,-721.57 v -52.8 c 321.7,113.51 553.9,423.52 553.9,774.37 0,295.66 -152.5,560.82 -408,709.4" /><path
         id="path50"
         style="fill:#ffffff;fill-opacity:1;fill-rule:nonzero;stroke:none"
         d="m 4615.12,3451.35 -33.04,19.16 10.84,36.58 c 10.97,36.62 16.5,75.44 16.5,115.5 0,225.28 -183.07,408.55 -408.13,408.55 -54.63,0 -107.65,-10.78 -157.63,-32.02 l -31.14,-13.26 -23.16,24.6 c -212,224.9 -510.61,353.88 -819.31,353.88 -508.46,0 -955.64,-342.64 -1087.4,-833.27 l -6.13,-22.92 -21.9,-9.2 c -305.71,-128.97 -503.28,-426.07 -503.28,-757 0,-297.62 159.58,-558.01 397.09,-702.27 l 38.5,35.02 c -230.22,133.75 -385.71,382.41 -385.71,667.25 0,321.63 203.32,612.71 505.83,724.26 l 12.65,4.5 2.87,12.93 c 113.73,489.25 544.47,830.99 1047.48,830.99 315.38,0 613.59,-137.55 818.24,-377.42 l 13.59,-15.7 18.15,10.72 c 55.46,32.15 118.15,49.12 181.26,49.12 197.99,0 359.04,-160.94 359.04,-358.76 0,-52.56 -11.69,-103.91 -34.77,-152.62 l -10.66,-22.85 22.16,-10.72 c 268.92,-130.23 436,-396.32 436,-694.45 0,-416.68 -339.29,-762.51 -756.31,-770.88 l -6.74,-1.01 H 2766.17 l -51.23,-50.02 h 1502.12 l 19.89,0.26 49.26,5.13 c 413.2,43.25 736.89,401.88 736.89,816.52 0,295.66 -152.54,560.82 -407.98,709.4" /><path
         id="path52"
         style="fill:#ffffff;fill-opacity:1;fill-rule:nonzero;stroke:none"
         d="m 6769.35,2836.71 c -33.14,47.94 -86.34,71.9 -159.61,71.9 -62.82,0 -112.87,-17.61 -150.17,-52.93 -37.25,-35.35 -55.91,-83.06 -55.91,-143.26 0,-59.33 17.78,-106.64 53.36,-141.95 35.47,-35.4 84.03,-53.04 145.52,-53.04 70.24,0 123.87,24.45 160.92,73.28 l 28.81,-18.31 c -44.06,-57.16 -107.1,-85.74 -189.12,-85.74 -71.48,0 -128.17,20.06 -170.06,60.25 -41.86,40.08 -62.77,94.4 -62.77,162.86 0,70.16 21.56,126.05 64.78,167.49 43.14,41.42 101.37,62.18 174.64,62.18 85.07,0 147.64,-28.38 187.72,-85.07 l -28.11,-17.66" /><path
         id="path54"
         style="fill:#ffffff;fill-opacity:1;fill-rule:nonzero;stroke:none"
         d="m 7054.62,2904.09 h -176.69 v -188.42 h 177.34 c 33.54,0 61.69,7.43 84.43,22.23 25.7,16.59 38.56,39.92 38.56,70.01 0,64.11 -41.2,96.18 -123.64,96.18 z m -11.19,-219.23 h -165.5 v -193.6 h -33.34 v 443.56 h 206.07 c 107.69,0 161.61,-42.26 161.61,-126.91 0,-42.76 -18.3,-74.82 -54.97,-96.21 -30.04,-17.88 -68.02,-26.84 -113.87,-26.84" /><path
         id="path56"
         style="fill:#ffffff;fill-opacity:1;fill-rule:nonzero;stroke:none"
         d="m 7580.63,2525.91 c -30.98,-26.12 -77.69,-39.25 -140.06,-39.25 -63.24,0 -110.09,13.32 -140.65,39.92 -32.68,27.91 -49.02,71.99 -49.02,132.12 v 276.12 h 33.37 V 2658.7 c 0,-94.17 52.06,-141.27 156.3,-141.27 103.81,0 155.74,46.46 155.74,139.34 v 278.05 h 33.37 v -277.39 c 0,-59.78 -16.38,-103.58 -49.05,-131.52" /><path
         id="path58"
         style="fill:#ffffff;fill-opacity:1;fill-rule:nonzero;stroke:none"
         d="M 6162.19,1875.27 H 7837.7 V 3550.79 H 6162.19 Z m 1716.4,-40.85 H 6121.3 V 3591.63 H 7878.59 V 1834.42" /><path
         id="path60"
         style="fill:#ffffff;fill-opacity:1;fill-rule:nonzero;stroke:none"
         d="m 8178.3,3645.16 h -40.9 v 62.3 c 0,78.87 -64.15,143.04 -143.03,143.04 h -73.11 v 40.84 h 73.11 c 101.46,0 183.93,-82.46 183.93,-183.88 v -62.3" /><path
         id="path62"
         style="fill:#ffffff;fill-opacity:1;fill-rule:nonzero;stroke:none"
         d="m 5862.48,3650.49 h -40.89 v 56.97 c 0,101.42 82.51,183.88 183.92,183.88 h 71.41 v -40.84 h -71.41 c -78.87,0 -143.03,-64.17 -143.03,-143.04 v -56.97" /><path
         id="path64"
         style="fill:#ffffff;fill-opacity:1;fill-rule:nonzero;stroke:none"
         d="m 6087.22,1534.72 h -81.71 c -101.41,0 -183.92,82.47 -183.92,183.84 v 69.62 h 40.89 v -69.62 c 0,-78.83 64.16,-142.99 143.03,-142.99 h 81.71 v -40.85" /><path
         id="path66"
         style="fill:#ffffff;fill-opacity:1;fill-rule:nonzero;stroke:none"
         d="m 7994.37,1534.72 h -81.05 v 40.85 h 81.05 c 78.88,0 143.03,64.16 143.03,142.99 v 74.94 h 40.9 v -74.94 c 0,-101.37 -82.47,-183.84 -183.93,-183.84" /><path
         id="path68"
         style="fill:#ffffff;fill-opacity:1;fill-rule:nonzero;stroke:none"
         d="m 7878.59,3382.58 v -116.05 l 190.83,136.18 h 281.89 c 23.39,0 44.68,12.94 55.56,33.69 l 5.78,10.95 h 121.42 v 36.05 h -121.42 l -5.78,11 c -10.88,20.79 -32.17,33.72 -55.56,33.72 H 8082.5 Z m -40.89,-195.39 v 216.45 l 231.72,165.35 h 281.89 c 34.38,0 65.98,-16.84 85.19,-44.7 h 138.47 V 3406.5 H 8436.5 c -19.21,-27.8 -50.81,-44.64 -85.19,-44.64 H 8082.5 l -244.8,-174.67" /><path
         id="path70"
         style="fill:#ffffff;fill-opacity:1;fill-rule:nonzero;stroke:none"
         d="m 7878.59,3075.17 v -122.52 l 197.37,73.87 h 275.35 c 23.39,0 44.68,12.93 55.61,33.69 l 5.73,10.97 h 121.42 v 36.11 h -121.42 l -5.78,10.95 c -10.88,20.78 -32.17,33.71 -55.56,33.71 h -271.6 z m -40.89,-181.93 v 210.12 l 238.26,89.44 h 275.35 c 34.38,0 65.98,-16.85 85.19,-44.66 h 138.47 V 3030.31 H 8436.5 c -19.25,-27.83 -50.81,-44.64 -85.19,-44.64 h -271.6 l -242.01,-92.43" /><path
         id="path72"
         style="fill:#ffffff;fill-opacity:1;fill-rule:nonzero;stroke:none"
         d="m 7878.59,2650.38 h 472.72 c 23.39,0 44.68,12.88 55.61,33.65 l 5.73,10.91 h 121.42 v 36.18 h -121.42 l -5.78,10.96 c -10.88,20.74 -32.1,33.63 -55.56,33.63 h -472.72 z m 472.72,-40.9 H 7837.7 v 207.1 h 513.61 c 34.38,0 65.98,-16.8 85.19,-44.62 h 138.47 v -117.87 h -138.51 c -19.21,-27.8 -50.82,-44.61 -85.15,-44.61" /><path
         id="path74"
         style="fill:#ffffff;fill-opacity:1;fill-rule:nonzero;stroke:none"
         d="m 8079.71,2274.16 h 271.6 c 23.46,0 44.68,12.88 55.56,33.63 l 5.78,10.98 h 121.42 v 36.15 h -121.42 l -5.73,10.91 c -10.93,20.84 -32.22,33.75 -55.61,33.75 l -282.6,1.36 -190.12,72.53 v -122.52 z m 271.6,-40.86 -282.67,1.36 -230.94,88.09 v 209.98 l 242.01,-92.25 h 271.6 c 34.33,0 65.94,-16.87 85.19,-44.66 h 138.47 V 2277.9 H 8436.5 c -19.21,-27.82 -50.81,-44.6 -85.19,-44.6" /><path
         id="path76"
         style="fill:#ffffff;fill-opacity:1;fill-rule:nonzero;stroke:none"
         d="m 8082.5,1897.92 h 268.81 c 23.39,0 44.68,12.94 55.56,33.74 l 5.78,10.96 h 121.42 v 36.09 h -121.42 l -5.73,10.96 c -10.93,20.78 -32.22,33.73 -55.61,33.73 h -281.89 l -190.83,136.13 v -115.99 z m 268.81,-40.85 h -281.89 l -231.72,165.39 v 216.43 l 244.8,-174.61 268.81,-0.05 c 34.33,0 65.94,-16.85 85.19,-44.62 h 138.47 V 1901.78 H 8436.5 c -19.25,-27.85 -50.81,-44.71 -85.19,-44.71" /><path
         id="path78"
         style="fill:#ffffff;fill-opacity:1;fill-rule:nonzero;stroke:none"
         d="m 5465.81,3447.35 h 121.44 l 5.76,-10.95 c 10.88,-20.75 32.18,-33.69 55.57,-33.69 h 281.89 l 190.83,-136.18 v 116.05 l -203.92,145.54 h -268.8 c -23.39,0 -44.69,-12.93 -55.57,-33.72 l -5.76,-11 h -121.44 z m 696.38,-260.16 -244.81,174.67 h -268.8 c -34.39,0 -65.99,16.84 -85.2,44.64 h -138.46 v 117.79 h 138.46 c 19.21,27.86 50.81,44.7 85.2,44.7 h 281.89 l 231.72,-165.35 v -216.45" /><path
         id="path80"
         style="fill:#ffffff;fill-opacity:1;fill-rule:nonzero;stroke:none"
         d="m 5465.81,3071.18 h 121.44 l 5.72,-10.97 c 10.92,-20.76 32.22,-33.69 55.61,-33.69 l 282.66,-1.31 190.06,-72.56 v 122.52 l -201.12,76.78 h -271.6 c -23.39,0 -44.69,-12.93 -55.57,-33.71 l -5.76,-10.95 h -121.44 z m 696.38,-177.94 -242.01,92.43 h -271.6 c -34.39,0 -65.94,16.81 -85.2,44.64 h -138.46 v 117.83 h 138.46 c 19.21,27.81 50.81,44.66 85.2,44.66 l 282.66,-1.35 230.95,-88.09 v -210.12" /><path
         id="path82"
         style="fill:#ffffff;fill-opacity:1;fill-rule:nonzero;stroke:none"
         d="m 5465.81,2694.94 h 121.44 l 5.72,-10.91 c 10.92,-20.77 32.22,-33.65 55.61,-33.65 h 472.72 v 125.33 h -472.72 c -23.44,0 -44.69,-12.89 -55.57,-33.63 l -5.76,-10.96 h -121.44 z m 696.38,-85.46 h -513.61 c -34.31,0 -65.94,16.81 -85.12,44.61 h -138.54 v 117.87 h 138.46 c 19.21,27.82 50.81,44.62 85.2,44.62 h 513.61 v -207.1" /><path
         id="path84"
         style="fill:#ffffff;fill-opacity:1;fill-rule:nonzero;stroke:none"
         d="m 5465.81,2318.77 h 121.44 l 5.76,-10.98 c 10.88,-20.75 32.13,-33.63 55.57,-33.63 h 271.6 l 201.12,76.79 v 122.52 l -197.38,-73.89 h -275.34 c -23.36,0 -44.69,-12.91 -55.61,-33.75 l -5.72,-10.91 h -121.44 z m 461.88,-85.47 h -279.11 c -34.39,0 -65.99,16.78 -85.2,44.6 h -138.46 v 117.92 h 138.46 c 19.26,27.79 50.89,44.66 85.2,44.66 h 271.6 l 242.01,92.25 v -209.98 l -234.5,-89.45" /><path
         id="path86"
         style="fill:#ffffff;fill-opacity:1;fill-rule:nonzero;stroke:none"
         d="m 5465.81,1942.62 h 121.44 l 5.76,-10.96 c 10.88,-20.8 32.18,-33.74 55.57,-33.74 h 268.8 l 203.92,145.62 v 115.99 L 5930.47,2023.4 h -281.89 c -23.39,0 -44.69,-12.95 -55.61,-33.73 l -5.72,-10.96 h -121.44 z m 464.66,-85.55 h -281.89 c -34.39,0 -65.94,16.86 -85.2,44.71 h -138.46 v 117.83 h 138.46 c 19.26,27.77 50.89,44.62 85.2,44.62 h 268.8 l 244.81,174.66 v -216.43 l -231.72,-165.39" /><path
         id="path88"
         style="fill:#ffffff;fill-opacity:1;fill-rule:nonzero;stroke:none"
         d="m 7734.31,1178.87 h 36.02 v 121.5 l 11,5.72 c 20.78,10.85 33.71,32.19 33.71,55.53 v 268.85 l -145.56,203.95 h -116.03 l 136.17,-190.87 v -281.93 c 0,-23.34 12.95,-44.68 33.69,-55.53 l 11,-5.72 z m 76.9,-40.87 h -117.8 v 138.46 c -27.79,19.22 -44.64,50.82 -44.64,85.16 v 268.85 l -174.68,244.8 h 216.47 l 165.34,-231.72 v -281.93 c 0,-34.34 -16.85,-65.94 -44.69,-85.16 V 1138" /><path
         id="path90"
         style="fill:#ffffff;fill-opacity:1;fill-rule:nonzero;stroke:none"
         d="m 7358.09,1178.87 h 36.08 v 121.5 l 11,5.72 c 20.76,10.85 33.7,32.19 33.7,55.53 v 271.64 l -76.8,201.16 h -122.52 l 73.93,-197.41 v -275.39 c 0,-23.34 12.85,-44.68 33.68,-55.57 l 10.93,-5.68 z m 76.97,-40.87 h -117.87 v 138.46 c -27.8,19.26 -44.6,50.82 -44.6,85.16 v 271.64 l -92.39,242.01 h 210.02 l 89.54,-238.26 v -275.39 c 0,-34.34 -16.9,-65.94 -44.7,-85.16 V 1138" /><path
         id="path92"
         style="fill:#ffffff;fill-opacity:1;fill-rule:nonzero;stroke:none"
         d="m 6981.85,1178.87 h 36.18 v 121.5 l 10.99,5.72 c 20.75,10.85 33.62,32.14 33.62,55.53 v 472.8 h -125.35 v -472.8 c 0,-23.34 12.9,-44.68 33.65,-55.57 l 10.91,-5.77 z m 77.08,-40.87 h -117.92 v 138.5 c -27.77,19.22 -44.57,50.82 -44.57,85.12 v 513.65 h 207.09 v -513.65 c 0,-34.34 -16.81,-65.94 -44.6,-85.16 V 1138" /><path
         id="path94"
         style="fill:#ffffff;fill-opacity:1;fill-rule:nonzero;stroke:none"
         d="m 6605.71,1178.87 h 36.13 v 121.41 l 10.95,5.77 c 20.77,10.91 33.69,32.27 33.69,55.57 l 1.4,282.68 72.49,190.12 h -122.51 l -76.8,-201.16 v -271.64 c 0,-23.39 12.9,-44.68 33.65,-55.53 l 11,-5.72 z M 6682.7,1138 h -117.88 v 138.46 c -27.8,19.22 -44.6,50.82 -44.6,85.16 l 1.34,282.68 88.1,230.97 h 210.03 l -92.32,-242.01 v -271.64 c 0,-34.3 -16.84,-65.9 -44.67,-85.16 V 1138" /><path
         id="path96"
         style="fill:#ffffff;fill-opacity:1;fill-rule:nonzero;stroke:none"
         d="m 6229.56,1178.87 h 36.09 v 121.5 l 10.93,5.68 c 20.79,10.91 33.67,32.23 33.67,55.57 v 281.93 l 136.19,190.87 h -116.01 l -145.56,-203.95 v -268.85 c 0,-23.34 12.94,-44.66 33.69,-55.53 l 11,-5.72 z m 76.95,-40.87 h -117.84 v 138.46 c -27.84,19.26 -44.69,50.82 -44.69,85.16 v 281.93 l 165.4,231.72 h 216.41 l -174.6,-244.8 -0.04,-268.85 c 0,-34.3 -16.84,-65.9 -44.64,-85.16 V 1138" /><path
         id="path98"
         style="fill:#ffffff;fill-opacity:1;fill-rule:nonzero;stroke:none"
         d="m 7553.45,3591.63 h 116.03 l 145.56,203.97 v 268.79 c 0,23.39 -12.93,44.73 -33.71,55.58 l -11,5.71 v 121.52 h -36.02 v -121.52 l -11,-5.71 c -20.74,-10.85 -33.69,-32.19 -33.69,-55.58 v -281.88 z m 137.11,-40.84 h -216.47 l 174.68,244.81 v 268.79 c 0,34.35 16.85,65.99 44.64,85.17 v 138.49 h 117.8 v -138.49 c 27.84,-19.18 44.69,-50.82 44.69,-85.17 v -281.88 l -165.34,-231.72" /><path
         id="path100"
         style="fill:#ffffff;fill-opacity:1;fill-rule:nonzero;stroke:none"
         d="m 7239.55,3591.63 h 122.52 l 76.8,201.17 v 271.59 c 0,23.39 -12.94,44.73 -33.7,55.58 l -11,5.71 v 121.52 h -36.08 v -121.52 l -10.93,-5.67 c -20.83,-10.89 -33.68,-32.23 -33.68,-55.62 l -1.4,-282.66 z m 150.67,-40.84 H 7180.2 l 92.39,242.01 v 271.59 c 0,34.35 16.8,65.95 44.6,85.17 v 138.49 h 117.87 v -138.49 c 27.8,-19.18 44.7,-50.82 44.7,-85.17 l -1.4,-282.66 -88.14,-230.94" /><path
         id="path102"
         style="fill:#ffffff;fill-opacity:1;fill-rule:nonzero;stroke:none"
         d="m 6937.29,3591.63 h 125.35 v 472.76 c 0,23.44 -12.87,44.73 -33.62,55.58 l -10.99,5.71 v 121.52 h -36.18 v -121.48 l -10.91,-5.71 c -20.75,-10.89 -33.65,-32.23 -33.65,-55.62 z m 166.24,-40.84 h -207.09 v 513.6 c 0,34.35 16.8,65.95 44.57,85.17 v 138.49 h 117.92 v -138.49 c 27.79,-19.18 44.6,-50.82 44.6,-85.17 v -513.6" /><path
         id="path104"
         style="fill:#ffffff;fill-opacity:1;fill-rule:nonzero;stroke:none"
         d="m 6637.86,3591.63 h 122.51 l -73.89,197.42 v 275.34 c 0,23.35 -12.92,44.65 -33.69,55.62 l -10.95,5.71 v 121.48 h -36.13 v -121.52 l -11,-5.71 c -20.75,-10.85 -33.65,-32.14 -33.65,-55.58 V 3792.8 Z m 181.83,-40.84 h -210.03 l -89.44,238.26 v 275.34 c 0,34.35 16.8,65.99 44.6,85.17 v 138.49 h 117.88 v -138.49 c 27.83,-19.22 44.67,-50.82 44.67,-85.17 V 3792.8 l 92.32,-242.01" /><path
         id="path106"
         style="fill:#ffffff;fill-opacity:1;fill-rule:nonzero;stroke:none"
         d="m 6330.43,3591.63 h 116.01 l -136.1,190.88 -0.09,281.88 c 0,23.39 -12.88,44.65 -33.67,55.62 l -10.93,5.67 v 121.52 h -36.09 v -121.52 l -11,-5.71 c -20.75,-10.93 -33.69,-32.19 -33.69,-55.58 V 3795.6 Z m 195.36,-40.84 h -216.41 l -165.4,231.72 v 281.88 c 0,34.35 16.85,65.95 44.69,85.17 v 138.49 h 117.84 v -138.49 c 27.8,-19.22 44.64,-50.82 44.64,-85.17 V 3795.6 l 174.64,-244.81" /><path
         id="path108"
         style="fill:#ffffff;fill-opacity:1;fill-rule:nonzero;stroke:none"
         d="m 6498.61,6247.73 v -53.98 h 252.77 v 53.98 h -252.77" /><path
         id="path110"
         style="fill:#ffffff;fill-opacity:1;fill-rule:nonzero;stroke:none"
         d="m 6358.16,6247.73 -282.52,0.23 v -53.47 l 282.52,-0.66 v 53.9" /><path
         id="path112"
         style="fill:#ffffff;fill-opacity:1;fill-rule:nonzero;stroke:none"
         d="m 8301.54,7728.74 -31.66,18.39 10.37,35.13 c 11,36.74 16.59,75.77 16.59,116 0,226.38 -183.99,410.54 -410.12,410.54 -54.9,0 -108.19,-10.81 -158.42,-32.14 l -29.85,-12.75 -22.22,23.63 C 7463.84,8512.79 7164.71,8642 6855.47,8642 c -509.35,0 -957.29,-343.23 -1089.3,-834.73 l -5.88,-22 -20.99,-8.82 c -306.49,-129.25 -504.51,-427.11 -504.51,-758.8 0,-404.93 297.5,-749.63 695.49,-812.32 v 54.79 c -367.48,62.11 -641.67,382.81 -641.67,757.53 0,320.81 202.8,611.1 504.55,722.39 l 13.68,4.84 3.09,13.99 c 113.5,488.37 543.47,829.46 1045.54,829.46 314.8,0 612.46,-137.3 816.72,-376.77 l 14.68,-16.91 19.57,11.53 c 55.16,31.99 117.51,48.87 180.28,48.87 196.87,0 357.06,-160.04 357.06,-356.79 0,-52.23 -11.62,-103.31 -34.58,-151.79 l -11.49,-24.59 23.88,-11.57 c 268.26,-129.87 434.92,-395.28 434.92,-692.66 0,-265.73 -136.64,-509.52 -365.57,-652.09 l -4.69,-2.9 v -61.41 l 15,8.91 c 252.42,149.81 409.25,420.9 409.25,707.49 0,296.33 -152.88,562.16 -408.96,711.09" /><path
         id="path114"
         style="fill:#ffffff;fill-opacity:1;fill-rule:nonzero;stroke:none"
         d="m 6784.53,5618 h 50.65 v 236.24 h -50.65 V 5618" /><path
         id="path116"
         style="fill:#ffffff;fill-opacity:1;fill-rule:nonzero;stroke:none"
         d="M 8025.89,7231.27 H 7012.53 c -125.77,0 -228,-102.22 -228,-228.07 V 5984.77 h 50.65 V 7003.2 c 0,97.81 79.61,177.39 177.35,177.39 h 1013.36 c 97.81,0 177.42,-79.58 177.42,-177.39 V 5010.21 c 0,-97.74 -79.61,-177.39 -177.42,-177.39 H 7012.53 c -97.74,0 -177.35,79.65 -177.35,177.39 v 483.88 h -50.65 v -483.88 c 0,-125.7 102.23,-227.99 228,-227.99 h 1013.36 c 125.77,0 228.07,102.29 228.07,227.99 V 7003.2 c 0,125.85 -102.3,228.07 -228.07,228.07" /><path
         id="path118"
         style="fill:#ffffff;fill-opacity:1;fill-rule:nonzero;stroke:none"
         d="m 6924.36,5618 h 50.69 v 236.24 h -50.69 V 5618" /><path
         id="path120"
         style="fill:#ffffff;fill-opacity:1;fill-rule:nonzero;stroke:none"
         d="M 7925.94,6952.52 H 7112.5 c -103.73,0 -188.14,-84.38 -188.14,-188.01 v -779.74 h 50.69 v 779.74 c 0,75.83 61.6,137.4 137.45,137.4 h 813.44 c 75.87,0 137.55,-61.57 137.55,-137.4 V 5347.36 c 0,-75.66 -61.68,-137.3 -137.55,-137.3 H 7112.5 c -75.85,0 -137.45,61.64 -137.45,137.3 v 146.73 h -50.69 v -146.73 c 0,-103.55 84.41,-188 188.14,-188 h 813.44 c 103.62,0 187.93,84.45 187.93,188 v 1417.15 c 0,103.63 -84.31,188.01 -187.93,188.01" /><path
         id="path122"
         style="fill:#ffffff;fill-opacity:1;fill-rule:nonzero;stroke:none"
         d="m 7754.28,7072.21 c 0,-20.84 -16.91,-37.84 -37.71,-37.84 h -414.41 c -20.83,0 -37.55,17 -37.55,37.84 v 0 c 0,20.79 16.72,37.7 37.55,37.7 h 414.41 c 20.8,0 37.71,-16.91 37.71,-37.7 v 0" /><path
         id="path124"
         style="fill:#ffffff;fill-opacity:1;fill-rule:nonzero;stroke:none"
         d="m 7595.29,4996.08 c 0,-48.25 -39.07,-87.29 -87.34,-87.29 -48.21,0 -87.29,39.04 -87.29,87.29 0,48.21 39.08,87.24 87.29,87.24 48.27,0 87.34,-39.03 87.34,-87.24" /><path
         id="path126"
         style="fill:#ffffff;fill-opacity:1;fill-rule:nonzero;stroke:none"
         d="M 7264.61,5530.21 H 6242.54 c -145.41,0 -263.71,118.29 -263.71,263.69 v 853.63 c 0,14.26 11.55,25.8 25.79,25.8 14.26,0 25.79,-11.54 25.79,-25.8 V 5793.9 c 0,-116.97 95.15,-212.11 212.13,-212.11 h 1022.07 c 14.25,0 25.79,-11.54 25.79,-25.79 0,-14.25 -11.54,-25.79 -25.79,-25.79" /><path
         id="path128"
         style="fill:#ffffff;fill-opacity:1;fill-rule:nonzero;stroke:none"
         d="m 7187.55,5892.88 h -525.38 c -145.4,0 -263.7,118.3 -263.7,263.7 v 446.08 c 0,14.25 11.53,25.79 25.78,25.79 14.26,0 25.8,-11.54 25.8,-25.79 v -446.08 c 0,-116.98 95.15,-212.12 212.12,-212.12 h 525.38 c 14.26,0 25.79,-11.54 25.79,-25.79 0,-14.25 -11.53,-25.79 -25.79,-25.79" /><path
         id="path130"
         style="fill:#ffffff;fill-opacity:1;fill-rule:nonzero;stroke:none"
         d="m 6189.45,6619.97 c -6.58,0 -13.21,2.52 -18.24,7.55 l -166.59,166.65 -166.58,-166.65 c -10.06,-10.07 -26.4,-10.07 -36.47,0 -10.07,10.06 -10.07,26.41 0,36.47 l 203.05,203.07 203.07,-203.07 c 10.06,-10.06 10.06,-26.41 0,-36.47 -5.04,-5.03 -11.66,-7.55 -18.24,-7.55" /><path
         id="path132"
         style="fill:#ffffff;fill-opacity:1;fill-rule:nonzero;stroke:none"
         d="m 7172.17,5708.06 c -6.57,0 -13.2,2.52 -18.23,7.54 -10.07,10.08 -10.07,26.42 0,36.48 l 166.66,166.59 -166.66,166.59 c -10.07,10.06 -10.07,26.41 0,36.46 10.07,10.08 26.4,10.08 36.48,0 l 203.05,-203.05 -203.05,-203.07 c -5.04,-5.02 -11.66,-7.54 -18.25,-7.54" /><path
         id="path134"
         style="fill:#ffffff;fill-opacity:1;fill-rule:nonzero;stroke:none"
         d="m 7488.23,5530.21 h -99.13 c -14.25,0 -25.79,11.54 -25.79,25.79 0,14.25 11.54,25.79 25.79,25.79 h 99.13 c 14.24,0 25.79,-11.54 25.79,-25.79 0,-14.25 -11.55,-25.79 -25.79,-25.79" /><path
         id="path136"
         style="fill:#ffffff;fill-opacity:1;fill-rule:nonzero;stroke:none"
         d="m 7688.12,5530.21 h -99.15 c -14.23,0 -25.78,11.54 -25.78,25.79 0,14.25 11.55,25.79 25.78,25.79 h 99.15 c 14.24,0 25.78,-11.54 25.78,-25.79 0,-14.25 -11.54,-25.79 -25.78,-25.79" /><path
         id="path138"
         style="fill:#ffffff;fill-opacity:1;fill-rule:nonzero;stroke:none"
         d="m 6424.25,6892.1 c -14.25,0 -25.78,11.55 -25.78,25.8 v 99.13 c 0,14.24 11.53,25.78 25.78,25.78 14.26,0 25.8,-11.54 25.8,-25.78 v -99.13 c 0,-14.25 -11.54,-25.8 -25.8,-25.8" /><path
         id="path140"
         style="fill:#ffffff;fill-opacity:1;fill-rule:nonzero;stroke:none"
         d="m 6424.25,6692.23 c -14.25,0 -25.78,11.53 -25.78,25.78 v 99.13 c 0,14.25 11.53,25.79 25.78,25.79 14.26,0 25.8,-11.54 25.8,-25.79 v -99.13 c 0,-14.25 -11.54,-25.78 -25.8,-25.78" /><path
         id="path142"
         style="fill:#ffffff;fill-opacity:1;fill-rule:nonzero;stroke:none"
         d="m 4615.12,7729.01 -33.04,19.17 10.84,36.59 c 10.97,36.6 16.5,75.43 16.5,115.48 0,225.28 -183.07,408.55 -408.13,408.55 -54.63,0 -107.65,-10.76 -157.63,-32.02 l -31.14,-13.25 -23.16,24.59 c -212,224.9 -510.61,353.88 -819.31,353.88 -508.46,0 -955.64,-342.65 -1087.4,-833.26 l -6.13,-22.92 -21.9,-9.22 c -305.71,-128.94 -503.28,-426.05 -503.28,-756.98 0,-453.21 368.71,-821.91 821.92,-821.91 h 134.51 v 50.02 h -134.51 c -425.72,0 -772.04,346.25 -772.04,771.89 0,321.63 203.32,612.7 505.83,724.26 l 12.65,4.49 2.87,12.93 c 113.73,489.26 544.47,830.99 1047.48,830.99 315.38,0 613.59,-137.55 818.24,-377.44 l 13.59,-15.68 18.15,10.73 c 55.46,32.14 118.15,49.11 181.26,49.11 197.99,0 359.04,-160.94 359.04,-358.76 0,-52.56 -11.69,-103.9 -34.77,-152.61 l -10.66,-22.85 22.16,-10.73 c 268.92,-130.22 436,-396.32 436,-694.44 0,-416.69 -339.29,-762.51 -756.31,-770.88 l -6.74,-1.01 h -145.9 v -50.02 h 152.95 l 19.89,0.26 49.26,5.12 c 413.2,43.24 736.89,401.89 736.89,816.53 0,295.64 -152.54,560.82 -407.98,709.39" /><path
         id="path144"
         style="fill:#ffffff;fill-opacity:1;fill-rule:nonzero;stroke:none"
         d="m 3262.94,6762.47 v -213.14 h 48.56 v 213.14 h -48.56" /><path
         id="path146"
         style="fill:#ffffff;fill-opacity:1;fill-rule:nonzero;stroke:none"
         d="m 3262.94,6036.35 v -213.13 h 48.56 v 213.13 h -48.56" /><path
         id="path148"
         style="fill:#ffffff;fill-opacity:1;fill-rule:nonzero;stroke:none"
         d="m 2600.71,6789.22 h 1373.02 v 450.07 H 2600.71 Z M 3997.92,6740.7 H 2576.51 c -13.37,0 -24.27,10.93 -24.27,24.25 v 498.54 c 0,13.44 10.9,24.28 24.27,24.28 h 1421.41 c 13.36,0 24.28,-10.84 24.28,-24.28 v -498.54 c 0,-13.32 -10.92,-24.25 -24.28,-24.25" /><path
         id="path150"
         style="fill:#ffffff;fill-opacity:1;fill-rule:nonzero;stroke:none"
         d="m 2600.71,6067.71 h 1373.02 v 450.25 H 2600.71 Z m 1397.21,-48.4 H 2576.51 c -13.37,0 -24.27,10.84 -24.27,24.24 v 498.58 c 0,13.4 10.9,24.33 24.27,24.33 h 1421.41 c 13.36,0 24.28,-10.93 24.28,-24.33 v -498.58 c 0,-13.4 -10.92,-24.24 -24.28,-24.24" /><path
         id="path152"
         style="fill:#ffffff;fill-opacity:1;fill-rule:nonzero;stroke:none"
         d="m 2600.71,5346.47 h 1373.02 v 450.06 H 2600.71 Z m 1397.21,-48.4 H 2576.51 c -13.37,0 -24.27,10.76 -24.27,24.24 v 498.43 c 0,13.44 10.9,24.27 24.27,24.27 h 1421.41 c 13.36,0 24.28,-10.83 24.28,-24.27 v -498.43 c 0,-13.48 -10.92,-24.24 -24.28,-24.24" /><path
         id="path154"
         style="fill:#ffffff;fill-opacity:1;fill-rule:nonzero;stroke:none"
         d="m 3026.5,7014.19 c 0,-16.61 -13.51,-30.11 -30.17,-30.11 -16.68,0 -30.15,13.5 -30.15,30.11 0,16.65 13.47,30.09 30.15,30.09 16.66,0 30.17,-13.44 30.17,-30.09" /><path
         id="path156"
         style="fill:#ffffff;fill-opacity:1;fill-rule:nonzero;stroke:none"
         d="m 3169.58,7014.19 c 0,-16.61 -13.52,-30.11 -30.17,-30.11 -16.53,0 -30.01,13.5 -30.01,30.11 0,16.65 13.48,30.09 30.01,30.09 16.65,0 30.17,-13.44 30.17,-30.09" /><path
         id="path158"
         style="fill:#ffffff;fill-opacity:1;fill-rule:nonzero;stroke:none"
         d="m 3312.77,7014.19 c 0,-16.61 -13.4,-30.11 -30.12,-30.11 -16.59,0 -30.06,13.5 -30.06,30.11 0,16.65 13.47,30.09 30.06,30.09 16.72,0 30.12,-13.44 30.12,-30.09" /><path
         id="path160"
         style="fill:#ffffff;fill-opacity:1;fill-rule:nonzero;stroke:none"
         d="m 3456.01,7014.19 c 0,-16.61 -13.52,-30.11 -30.01,-30.11 -16.68,0 -30.05,13.5 -30.05,30.11 0,16.65 13.37,30.09 30.05,30.09 16.49,0 30.01,-13.44 30.01,-30.09" /><path
         id="path162"
         style="fill:#ffffff;fill-opacity:1;fill-rule:nonzero;stroke:none"
         d="m 3599.32,7014.19 c 0,-16.61 -13.48,-30.11 -30.12,-30.11 -16.66,0 -30.09,13.5 -30.09,30.11 0,16.65 13.43,30.09 30.09,30.09 16.64,0 30.12,-13.44 30.12,-30.09" /><path
         id="path164"
         style="fill:#ffffff;fill-opacity:1;fill-rule:nonzero;stroke:none"
         d="m 3742.43,7014.19 c 0,-16.61 -13.31,-30.11 -30.01,-30.11 -16.61,0 -30.12,13.5 -30.12,30.11 0,16.65 13.51,30.09 30.12,30.09 16.7,0 30.01,-13.44 30.01,-30.09" /><path
         id="path166"
         style="fill:#ffffff;fill-opacity:1;fill-rule:nonzero;stroke:none"
         d="m 3885.67,7014.19 c 0,-16.61 -13.52,-30.11 -30.08,-30.11 -16.7,0 -29.97,13.5 -29.97,30.11 0,16.65 13.27,30.09 29.97,30.09 16.56,0 30.08,-13.44 30.08,-30.09" /><path
         id="path168"
         style="fill:#ffffff;fill-opacity:1;fill-rule:nonzero;stroke:none"
         d="m 3026.5,6292.92 c 0,-16.65 -13.51,-30.2 -30.17,-30.2 -16.68,0 -30.15,13.55 -30.15,30.2 0,16.49 13.47,30.05 30.15,30.05 16.66,0 30.17,-13.56 30.17,-30.05" /><path
         id="path170"
         style="fill:#ffffff;fill-opacity:1;fill-rule:nonzero;stroke:none"
         d="m 3169.58,6292.92 c 0,-16.65 -13.52,-30.2 -30.17,-30.2 -16.53,0 -30.01,13.55 -30.01,30.2 0,16.49 13.48,30.05 30.01,30.05 16.65,0 30.17,-13.56 30.17,-30.05" /><path
         id="path172"
         style="fill:#ffffff;fill-opacity:1;fill-rule:nonzero;stroke:none"
         d="m 3312.77,6292.92 c 0,-16.65 -13.4,-30.2 -30.12,-30.2 -16.59,0 -30.06,13.55 -30.06,30.2 0,16.49 13.47,30.05 30.06,30.05 16.72,0 30.12,-13.56 30.12,-30.05" /><path
         id="path174"
         style="fill:#ffffff;fill-opacity:1;fill-rule:nonzero;stroke:none"
         d="m 3456.01,6292.92 c 0,-16.65 -13.52,-30.2 -30.01,-30.2 -16.68,0 -30.05,13.55 -30.05,30.2 0,16.49 13.37,30.05 30.05,30.05 16.49,0 30.01,-13.56 30.01,-30.05" /><path
         id="path176"
         style="fill:#ffffff;fill-opacity:1;fill-rule:nonzero;stroke:none"
         d="m 3599.32,6292.92 c 0,-16.65 -13.48,-30.2 -30.12,-30.2 -16.66,0 -30.09,13.55 -30.09,30.2 0,16.49 13.43,30.05 30.09,30.05 16.64,0 30.12,-13.56 30.12,-30.05" /><path
         id="path178"
         style="fill:#ffffff;fill-opacity:1;fill-rule:nonzero;stroke:none"
         d="m 3742.43,6292.92 c 0,-16.65 -13.31,-30.2 -30.01,-30.2 -16.61,0 -30.12,13.55 -30.12,30.2 0,16.49 13.51,30.05 30.12,30.05 16.7,0 30.01,-13.56 30.01,-30.05" /><path
         id="path180"
         style="fill:#ffffff;fill-opacity:1;fill-rule:nonzero;stroke:none"
         d="m 3885.67,6292.92 c 0,-16.65 -13.52,-30.2 -30.08,-30.2 -16.7,0 -29.97,13.55 -29.97,30.2 0,16.49 13.27,30.05 29.97,30.05 16.56,0 30.08,-13.56 30.08,-30.05" /><path
         id="path182"
         style="fill:#ffffff;fill-opacity:1;fill-rule:nonzero;stroke:none"
         d="m 2772.21,7082.54 c 37.72,0 68.39,-30.67 68.39,-68.35 0,-37.56 -30.67,-68.29 -68.39,-68.29 -37.71,0 -68.23,30.73 -68.23,68.29 0,37.68 30.52,68.35 68.23,68.35 z m 0,-180.33 c 61.76,0 112.06,50.31 112.06,111.98 0,61.93 -50.3,112.11 -112.06,112.11 -61.76,0 -111.94,-50.18 -111.94,-112.11 0,-61.67 50.18,-111.98 111.94,-111.98" /><path
         id="path184"
         style="fill:#ffffff;fill-opacity:1;fill-rule:nonzero;stroke:none"
         d="m 2772.21,6224.53 c -37.71,0 -68.23,30.6 -68.23,68.39 0,37.64 30.52,68.23 68.23,68.23 37.72,0 68.39,-30.59 68.39,-68.23 0,-37.79 -30.67,-68.39 -68.39,-68.39 z m 0,180.37 c -61.76,0 -111.94,-50.22 -111.94,-111.98 0,-61.88 50.18,-112.06 111.94,-112.06 61.76,0 112.06,50.18 112.06,112.06 0,61.76 -50.3,111.98 -112.06,111.98" /><path
         id="path186"
         style="fill:#ffffff;fill-opacity:1;fill-rule:nonzero;stroke:none"
         d="m 2772.21,5503.14 c -37.71,0 -68.23,30.75 -68.23,68.34 0,37.72 30.52,68.39 68.23,68.39 37.72,0 68.39,-30.67 68.39,-68.39 0,-37.59 -30.67,-68.34 -68.39,-68.34 z m 0,180.49 c -61.76,0 -111.94,-50.35 -111.94,-112.15 0,-61.84 50.18,-112.03 111.94,-112.03 61.76,0 112.06,50.19 112.06,112.03 0,61.8 -50.3,112.15 -112.06,112.15" /><path
         id="path188"
         style="fill:#ffffff;fill-opacity:1;fill-rule:nonzero;stroke:none"
         d="m 3026.5,5571.48 c 0,-16.56 -13.51,-30.08 -30.17,-30.08 -16.68,0 -30.15,13.52 -30.15,30.08 0,16.62 13.47,30.12 30.15,30.12 16.66,0 30.17,-13.5 30.17,-30.12" /><path
         id="path190"
         style="fill:#ffffff;fill-opacity:1;fill-rule:nonzero;stroke:none"
         d="m 3169.58,5571.48 c 0,-16.56 -13.52,-30.08 -30.17,-30.08 -16.53,0 -30.01,13.52 -30.01,30.08 0,16.62 13.48,30.12 30.01,30.12 16.65,0 30.17,-13.5 30.17,-30.12" /><path
         id="path192"
         style="fill:#ffffff;fill-opacity:1;fill-rule:nonzero;stroke:none"
         d="m 3312.77,5571.48 c 0,-16.56 -13.4,-30.08 -30.12,-30.08 -16.59,0 -30.06,13.52 -30.06,30.08 0,16.62 13.47,30.12 30.06,30.12 16.72,0 30.12,-13.5 30.12,-30.12" /><path
         id="path194"
         style="fill:#ffffff;fill-opacity:1;fill-rule:nonzero;stroke:none"
         d="m 3456.01,5571.48 c 0,-16.56 -13.52,-30.08 -30.01,-30.08 -16.68,0 -30.05,13.52 -30.05,30.08 0,16.62 13.37,30.12 30.05,30.12 16.49,0 30.01,-13.5 30.01,-30.12" /><path
         id="path196"
         style="fill:#ffffff;fill-opacity:1;fill-rule:nonzero;stroke:none"
         d="m 3599.32,5571.48 c 0,-16.56 -13.48,-30.08 -30.12,-30.08 -16.66,0 -30.09,13.52 -30.09,30.08 0,16.62 13.43,30.12 30.09,30.12 16.64,0 30.12,-13.5 30.12,-30.12" /><path
         id="path198"
         style="fill:#ffffff;fill-opacity:1;fill-rule:nonzero;stroke:none"
         d="m 3742.43,5571.48 c 0,-16.56 -13.31,-30.08 -30.01,-30.08 -16.61,0 -30.12,13.52 -30.12,30.08 0,16.62 13.51,30.12 30.12,30.12 16.7,0 30.01,-13.5 30.01,-30.12" /><path
         id="path200"
         style="fill:#ffffff;fill-opacity:1;fill-rule:nonzero;stroke:none"
         d="m 3885.67,5571.48 c 0,-16.56 -13.52,-30.08 -30.08,-30.08 -16.7,0 -29.97,13.52 -29.97,30.08 0,16.62 13.27,30.12 29.97,30.12 16.56,0 30.08,-13.5 30.08,-30.12" /><path
         id="path202"
         style="fill:#ffffff;fill-opacity:1;fill-rule:nonzero;stroke:none"
         d="m 3518.89,7287.77 h -39.65 v 505.63 h 452.66 v -39.65 h -413.01 v -465.98" /><path
         id="path204"
         style="fill:#ffffff;fill-opacity:1;fill-rule:nonzero;stroke:none"
         d="m 3095.2,7287.77 h -39.65 v 310.67 h -351.57 v 39.66 h 391.22 v -350.33" /><path
         id="path206"
         style="fill:#ffffff;fill-opacity:1;fill-rule:nonzero;stroke:none"
         d="m 3307.04,7287.77 h -39.65 v 690.69 h 39.65 v -690.69" /><path
         id="path208"
         style="fill:#ffffff;fill-opacity:1;fill-rule:nonzero;stroke:none"
         d="m 4022.2,7798.09 c -13.51,0 -24.51,-11 -24.51,-24.51 0,-13.51 11,-24.51 24.51,-24.51 13.52,0 24.52,11 24.52,24.51 0,13.51 -11,24.51 -24.52,24.51 z m 0,-88.67 c -35.39,0 -64.15,28.77 -64.15,64.16 0,35.39 28.76,64.16 64.15,64.16 35.4,0 64.17,-28.77 64.17,-64.16 0,-35.39 -28.77,-64.16 -64.17,-64.16" /><path
         id="path210"
         style="fill:#ffffff;fill-opacity:1;fill-rule:nonzero;stroke:none"
         d="m 3287.23,8092.23 c -13.52,0 -24.52,-11 -24.52,-24.52 0,-13.51 11,-24.51 24.52,-24.51 13.5,0 24.49,11 24.49,24.51 0,13.52 -10.99,24.52 -24.49,24.52 z m 0,-88.69 c -35.41,0 -64.17,28.78 -64.17,64.17 0,35.4 28.76,64.17 64.17,64.17 35.38,0 64.15,-28.77 64.15,-64.17 0,-35.39 -28.77,-64.17 -64.15,-64.17" /><path
         id="path212"
         style="fill:#ffffff;fill-opacity:1;fill-rule:nonzero;stroke:none"
         d="m 2614.07,7642.77 c -13.52,0 -24.52,-10.99 -24.52,-24.5 0,-13.51 11,-24.52 24.52,-24.52 13.51,0 24.51,11.01 24.51,24.52 0,13.51 -11,24.5 -24.51,24.5 z m 0,-88.67 c -35.38,0 -64.16,28.77 -64.16,64.17 0,35.38 28.78,64.16 64.16,64.16 35.4,0 64.16,-28.78 64.16,-64.16 0,-35.4 -28.76,-64.17 -64.16,-64.17" /><path
         id="path214"
         style="fill:#ffffff;fill-opacity:1;fill-rule:nonzero;stroke:none"
         d="m 10951.1,6443.24 h -513.9 c -13.1,0 -23.8,10.65 -23.8,23.77 0,13.13 10.7,23.78 23.8,23.78 h 513.9 c 13.1,0 23.7,-10.65 23.7,-23.78 0,-13.12 -10.6,-23.77 -23.7,-23.77" /><path
         id="path216"
         style="fill:#ffffff;fill-opacity:1;fill-rule:nonzero;stroke:none"
         d="m 11164.1,6443.24 h -107.4 c -13.1,0 -23.8,10.65 -23.8,23.77 0,13.13 10.7,23.78 23.8,23.78 h 107.4 c 13.2,0 23.8,-10.65 23.8,-23.78 0,-13.12 -10.6,-23.77 -23.8,-23.77" /><path
         id="path218"
         style="fill:#ffffff;fill-opacity:1;fill-rule:nonzero;stroke:none"
         d="m 11369,6443.24 h -107.4 c -13.2,0 -23.8,10.65 -23.8,23.77 0,13.13 10.6,23.78 23.8,23.78 h 107.4 c 13.1,0 23.7,-10.65 23.7,-23.78 0,-13.12 -10.6,-23.77 -23.7,-23.77" /><path
         id="path220"
         style="fill:#ffffff;fill-opacity:1;fill-rule:nonzero;stroke:none"
         d="m 11573.8,6443.24 h -107.4 c -13.1,0 -23.8,10.65 -23.8,23.77 0,13.13 10.7,23.78 23.8,23.78 h 107.4 c 13.1,0 23.8,-10.65 23.8,-23.78 0,-13.12 -10.7,-23.77 -23.8,-23.77" /><path
         id="path222"
         style="fill:#ffffff;fill-opacity:1;fill-rule:nonzero;stroke:none"
         d="m 9921.69,6443.24 h -107.42 c -13.12,0 -23.78,10.65 -23.78,23.77 0,13.13 10.66,23.78 23.78,23.78 h 107.42 c 13.13,0 23.77,-10.65 23.77,-23.78 0,-13.12 -10.64,-23.77 -23.77,-23.77" /><path
         id="path224"
         style="fill:#ffffff;fill-opacity:1;fill-rule:nonzero;stroke:none"
         d="m 10126.5,6443.24 h -107.4 c -13.1,0 -23.77,10.65 -23.77,23.77 0,13.13 10.67,23.78 23.77,23.78 h 107.4 c 13.1,0 23.8,-10.65 23.8,-23.78 0,-13.12 -10.7,-23.77 -23.8,-23.77" /><path
         id="path226"
         style="fill:#ffffff;fill-opacity:1;fill-rule:nonzero;stroke:none"
         d="M 10331.4,6443.24 H 10224 c -13.2,0 -23.8,10.65 -23.8,23.77 0,13.13 10.6,23.78 23.8,23.78 h 107.4 c 13.1,0 23.7,-10.65 23.7,-23.78 0,-13.12 -10.6,-23.77 -23.7,-23.77" /><path
         id="path228"
         style="fill:#ffffff;fill-opacity:1;fill-rule:nonzero;stroke:none"
         d="m 10072.7,7477.2 c -76.01,0 -137.92,-61.92 -137.92,-137.97 0,-76.05 61.91,-137.97 137.92,-137.97 76.1,0 138,61.92 138,137.97 0,76.05 -61.9,137.97 -138,137.97 z m 0,-323.49 c -102.26,0 -185.48,83.22 -185.48,185.52 0,102.31 83.22,185.52 185.48,185.52 102.3,0 185.6,-83.21 185.6,-185.52 0,-102.3 -83.3,-185.52 -185.6,-185.52" /><path
         id="path230"
         style="fill:#ffffff;fill-opacity:1;fill-rule:nonzero;stroke:none"
         d="m 11315.3,7477.2 c -76,0 -137.9,-61.92 -137.9,-137.97 0,-76.05 61.9,-137.97 137.9,-137.97 76.1,0 138,61.92 138,137.97 0,76.05 -61.9,137.97 -138,137.97 z m 0,-323.49 c -102.3,0 -185.5,83.22 -185.5,185.52 0,102.31 83.2,185.52 185.5,185.52 102.3,0 185.6,-83.21 185.6,-185.52 0,-102.3 -83.3,-185.52 -185.6,-185.52" /><path
         id="path232"
         style="fill:#ffffff;fill-opacity:1;fill-rule:nonzero;stroke:none"
         d="m 10694,7477.2 c -76,0 -137.9,-61.92 -137.9,-137.97 0,-76.05 61.9,-137.97 137.9,-137.97 76.1,0 138,61.92 138,137.97 0,76.05 -61.9,137.97 -138,137.97 z m 0,-323.49 c -102.3,0 -185.5,83.22 -185.5,185.52 0,102.31 83.2,185.52 185.5,185.52 102.3,0 185.6,-83.21 185.6,-185.52 0,-102.3 -83.3,-185.52 -185.6,-185.52" /><path
         id="path234"
         style="fill:#ffffff;fill-opacity:1;fill-rule:nonzero;stroke:none"
         d="m 12430,5716.12 h -239.4 c -11,0 -20,8.95 -20,20 0,11.04 9,20 20,20 h 239.4 c 11,0 20,-8.96 20,-20 0,-11.05 -9,-20 -20,-20" /><path
         id="path236"
         style="fill:#ffffff;fill-opacity:1;fill-rule:nonzero;stroke:none"
         d="m 9162.55,7878.46 h -239.36 c -11.04,0 -20,8.95 -20,20 0,11.04 8.96,20 20,20 h 239.36 c 11.04,0 20,-8.96 20,-20 0,-11.05 -8.96,-20 -20,-20" /><path
         id="path238"
         style="fill:#ffffff;fill-opacity:1;fill-rule:nonzero;stroke:none"
         d="m 5544.59,8270 h -239.35 c -11.05,0 -20,8.96 -20,20 0,11.04 8.95,20 20,20 h 239.35 c 11.05,0 20,-8.96 20,-20 0,-11.04 -8.95,-20 -20,-20" /><path
         id="path240"
         style="fill:#ffffff;fill-opacity:1;fill-rule:nonzero;stroke:none"
         d="M 1258.96,7442.93 H 1019.6 c -11.05,0 -19.998,8.95 -19.998,20 0,11.04 8.948,20 19.998,20 h 239.36 c 11.04,0 20,-8.96 20,-20 0,-11.05 -8.96,-20 -20,-20" /><path
         id="path242"
         style="fill:#ffffff;fill-opacity:1;fill-rule:nonzero;stroke:none"
         d="m 9610.47,5536 h -239.36 c -11.04,0 -20,8.95 -20,20 0,11.04 8.96,20 20,20 h 239.36 c 11.04,0 20,-8.96 20,-20 0,-11.05 -8.96,-20 -20,-20" /><path
         id="path244"
         style="fill:#ffffff;fill-opacity:1;fill-rule:nonzero;stroke:none"
         d="m 12549.6,3748.24 h -239.4 c -11,0 -20,8.96 -20,20 0,11.05 9,20 20,20 h 239.4 c 11,0 20,-8.95 20,-20 0,-11.04 -9,-20 -20,-20" /><path
         id="path246"
         style="fill:#ffffff;fill-opacity:1;fill-rule:nonzero;stroke:none"
         d="m 1547.88,4068.67 h -239.35 c -11.05,0 -20,8.96 -20,20 0,11.05 8.95,20 20,20 h 239.35 c 11.05,0 20,-8.95 20,-20 0,-11.04 -8.95,-20 -20,-20" /><path
         id="path248"
         style="fill:#ffffff;fill-opacity:1;fill-rule:nonzero;stroke:none"
         d="m 5424.92,5435.04 h -239.36 c -11.04,0 -20,8.96 -20,20 0,11.05 8.96,20 20,20 h 239.36 c 11.04,0 20,-8.95 20,-20 0,-11.04 -8.96,-20 -20,-20" /><path
         id="path250"
         style="fill:#ffffff;fill-opacity:1;fill-rule:nonzero;stroke:none"
         d="m 5218.82,1442.73 h -239.35 c -11.05,0 -20,8.96 -20,20 0,11.05 8.95,20 20,20 h 239.35 c 11.05,0 20,-8.95 20,-20 0,-11.04 -8.95,-20 -20,-20" /><path
         id="path252"
         style="fill:#ffffff;fill-opacity:1;fill-rule:nonzero;stroke:none"
         d="m 4141.88,1442.73 h -239.35 c -11.05,0 -20,8.96 -20,20 0,11.05 8.95,20 20,20 h 239.35 c 11.05,0 20,-8.95 20,-20 0,-11.04 -8.95,-20 -20,-20" /><path
         id="path254"
         style="fill:#ffffff;fill-opacity:1;fill-rule:nonzero;stroke:none"
         d="m 9336.05,1358.11 c -5.11,0 -10.23,1.95 -14.14,5.85 l -169.25,169.25 c -7.82,7.82 -7.82,20.47 0,28.28 7.81,7.82 20.47,7.82 28.28,0 l 169.26,-169.24 c 7.81,-7.82 7.81,-20.47 0,-28.29 -3.91,-3.9 -9.03,-5.85 -14.15,-5.85" /><path
         id="path256"
         style="fill:#ffffff;fill-opacity:1;fill-rule:nonzero;stroke:none"
         d="m 9166.8,1358.11 c -5.12,0 -10.24,1.95 -14.14,5.85 -7.82,7.82 -7.82,20.47 0,28.29 l 169.24,169.25 c 7.82,7.82 20.47,7.82 28.29,0 7.81,-7.81 7.81,-20.46 0,-28.28 l -169.25,-169.26 c -3.91,-3.9 -9.03,-5.85 -14.14,-5.85" /><path
         id="path258"
         style="fill:#ffffff;fill-opacity:1;fill-rule:nonzero;stroke:none"
         d="m 5075.37,8537.37 c -5.12,0 -10.23,1.96 -14.14,5.86 l -169.26,169.25 c -7.81,7.81 -7.81,20.47 0,28.28 7.81,7.81 20.47,7.81 28.28,0 l 169.26,-169.25 c 7.81,-7.8 7.81,-20.47 0,-28.28 -3.9,-3.9 -9.02,-5.86 -14.14,-5.86" /><path
         id="path260"
         style="fill:#ffffff;fill-opacity:1;fill-rule:nonzero;stroke:none"
         d="m 4906.11,8537.37 c -5.11,0 -10.23,1.96 -14.14,5.86 -7.81,7.81 -7.81,20.48 0,28.28 l 169.25,169.26 c 7.8,7.81 20.47,7.81 28.28,0 7.81,-7.81 7.81,-20.47 0,-28.28 l -169.25,-169.26 c -3.9,-3.9 -9.02,-5.86 -14.14,-5.86" /><path
         id="path262"
         style="fill:#ffffff;fill-opacity:1;fill-rule:nonzero;stroke:none"
         d="m 1308.54,6116.27 c -5.12,0 -10.24,1.95 -14.15,5.86 l -169.25,169.25 c -7.82,7.8 -7.82,20.47 0,28.28 7.8,7.81 20.47,7.81 28.28,0 l 169.26,-169.25 c 7.81,-7.81 7.81,-20.47 0,-28.28 -3.91,-3.91 -9.03,-5.86 -14.14,-5.86" /><path
         id="path264"
         style="fill:#ffffff;fill-opacity:1;fill-rule:nonzero;stroke:none"
         d="m 1139.28,6116.27 c -5.12,0 -10.24,1.95 -14.14,5.86 -7.82,7.81 -7.82,20.47 0,28.28 l 169.24,169.26 c 7.81,7.81 20.47,7.81 28.29,0 7.81,-7.81 7.81,-20.48 0,-28.28 l -169.25,-169.26 c -3.9,-3.91 -9.03,-5.86 -14.14,-5.86" /><path
         id="path266"
         style="fill:#ffffff;fill-opacity:1;fill-rule:nonzero;stroke:none"
         d="m 1986.62,3899.41 c -5.12,0 -10.23,1.96 -14.14,5.86 l -169.26,169.25 c -7.81,7.81 -7.81,20.47 0,28.28 7.81,7.82 20.47,7.82 28.28,0 l 169.26,-169.25 c 7.81,-7.81 7.81,-20.46 0,-28.28 -3.9,-3.9 -9.02,-5.86 -14.14,-5.86" /><path
         id="path268"
         style="fill:#ffffff;fill-opacity:1;fill-rule:nonzero;stroke:none"
         d="m 1817.36,3899.41 c -5.11,0 -10.23,1.96 -14.14,5.86 -7.81,7.82 -7.81,20.47 0,28.28 l 169.25,169.26 c 7.8,7.81 20.47,7.81 28.28,0 7.81,-7.81 7.81,-20.47 0,-28.28 L 1831.5,3905.27 c -3.9,-3.9 -9.02,-5.86 -14.14,-5.86" /><path
         id="path270"
         style="fill:#ffffff;fill-opacity:1;fill-rule:nonzero;stroke:none"
         d="m 4665.73,1358.11 c -5.12,0 -10.24,1.95 -14.14,5.85 l -169.26,169.25 c -7.81,7.82 -7.81,20.47 0,28.28 7.8,7.82 20.47,7.82 28.28,0 l 169.26,-169.24 c 7.81,-7.82 7.81,-20.47 0,-28.29 -3.9,-3.9 -9.03,-5.85 -14.14,-5.85" /><path
         id="path272"
         style="fill:#ffffff;fill-opacity:1;fill-rule:nonzero;stroke:none"
         d="m 4496.47,1358.11 c -5.12,0 -10.23,1.95 -14.14,5.85 -7.81,7.82 -7.81,20.47 0,28.29 l 169.25,169.25 c 7.8,7.82 20.47,7.82 28.28,0 7.81,-7.81 7.81,-20.46 0,-28.28 l -169.25,-169.26 c -3.9,-3.9 -9.02,-5.85 -14.14,-5.85" /><path
         id="path274"
         style="fill:#ffffff;fill-opacity:1;fill-rule:nonzero;stroke:none"
         d="m 12700.6,6024.65 c -5.1,0 -10.2,1.96 -14.1,5.86 l -169.3,169.25 c -7.8,7.81 -7.8,20.47 0,28.28 7.8,7.81 20.5,7.81 28.3,0 l 169.3,-169.25 c 7.8,-7.8 7.8,-20.47 0,-28.28 -3.9,-3.9 -9,-5.86 -14.2,-5.86" /><path
         id="path276"
         style="fill:#ffffff;fill-opacity:1;fill-rule:nonzero;stroke:none"
         d="m 12531.4,6024.65 c -5.1,0 -10.3,1.95 -14.2,5.86 -7.8,7.81 -7.8,20.47 0,28.28 l 169.3,169.26 c 7.8,7.81 20.5,7.81 28.3,0 7.8,-7.81 7.8,-20.48 0,-28.28 l -169.3,-169.26 c -3.9,-3.91 -9,-5.86 -14.1,-5.86" /><path
         id="path278"
         style="fill:#ffffff;fill-opacity:1;fill-rule:nonzero;stroke:none"
         d="m 9127.5,3899.41 c -5.12,0 -10.23,1.96 -14.14,5.86 l -169.26,169.26 c -7.81,7.81 -7.81,20.47 0,28.28 7.81,7.81 20.47,7.81 28.28,0 l 169.26,-169.26 c 7.81,-7.81 7.81,-20.46 0,-28.28 -3.91,-3.9 -9.02,-5.86 -14.14,-5.86" /><path
         id="path280"
         style="fill:#ffffff;fill-opacity:1;fill-rule:nonzero;stroke:none"
         d="m 8958.24,3899.41 c -5.11,0 -10.23,1.96 -14.14,5.86 -7.81,7.82 -7.81,20.47 0,28.28 l 169.25,169.26 c 7.81,7.81 20.47,7.81 28.28,0 7.81,-7.81 7.81,-20.47 0,-28.28 l -169.25,-169.26 c -3.9,-3.9 -9.02,-5.86 -14.14,-5.86" /><path
         id="path282"
         style="fill:#ffffff;fill-opacity:1;fill-rule:nonzero;stroke:none"
         d="m 9490.78,4344.34 h -239.35 c -11.05,0 -20,8.95 -20,20 0,11.04 8.95,20 20,20 h 239.35 c 11.05,0 20,-8.96 20,-20 0,-11.05 -8.95,-20 -20,-20" /><path
         id="path284"
         style="fill:#ffffff;fill-opacity:1;fill-rule:nonzero;stroke:none"
         d="m 12657.9,4931.54 h -884 c -11.1,0 -20,8.96 -20,20 0,11.05 8.9,20 20,20 h 884 c 11,0 20,-8.95 20,-20 0,-11.04 -9,-20 -20,-20" /><path
         id="path286"
         style="fill:#ffffff;fill-opacity:1;fill-rule:nonzero;stroke:none"
         d="m 2549.91,4931.54 h -884 c -11.05,0 -20,8.96 -20,20 0,11.05 8.95,20 20,20 h 884 c 11.05,0 20,-8.95 20,-20 0,-11.04 -8.95,-20 -20,-20" /><path
         id="path288"
         style="fill:#ffffff;fill-opacity:1;fill-rule:nonzero;stroke:none"
         d="m 5023.1,4561.86 h -884 c -11.05,0 -20,8.95 -20,20 0,11.04 8.95,20 20,20 h 884 c 11.05,0 20,-8.96 20,-20 0,-11.05 -8.95,-20 -20,-20" /><path
         id="path290"
         style="fill:#ffffff;fill-opacity:1;fill-rule:nonzero;stroke:none"
         d="m 2107.91,4561.86 h -884 c -11.05,0 -20,8.95 -20,20 0,11.04 8.95,20 20,20 h 884 c 11.05,0 20,-8.96 20,-20 0,-11.05 -8.95,-20 -20,-20" /><path
         id="path292"
         style="fill:#ffffff;fill-opacity:1;fill-rule:nonzero;stroke:none"
         d="m 13257.8,4561.86 h -1211.2 c -11,0 -20,8.95 -20,20 0,11.04 9,20 20,20 h 1211.2 c 11.1,0 20,-8.96 20,-20 0,-11.05 -8.9,-20 -20,-20" /><path
         id="path294"
         style="fill:#ffffff;fill-opacity:1;fill-rule:nonzero;stroke:none"
         d="m 5023.1,5215.41 c -30.9,0 -56.04,-25.15 -56.04,-56.05 0,-30.9 25.14,-56.04 56.04,-56.04 30.9,0 56.05,25.14 56.05,56.04 0,30.9 -25.15,56.05 -56.05,56.05 z m 0,-152.09 c -52.96,0 -96.04,43.08 -96.04,96.04 0,52.96 43.08,96.05 96.04,96.05 52.96,0 96.05,-43.09 96.05,-96.05 0,-52.96 -43.09,-96.04 -96.05,-96.04" /><path
         id="path296"
         style="fill:#ffffff;fill-opacity:1;fill-rule:nonzero;stroke:none"
         d="m 9790.49,1666.81 c -30.9,0 -56.05,-25.15 -56.05,-56.05 0,-30.9 25.15,-56.04 56.05,-56.04 30.9,0 56.04,25.14 56.04,56.04 0,30.9 -25.14,56.05 -56.04,56.05 z m 0,-152.09 c -52.96,0 -96.05,43.08 -96.05,96.04 0,52.96 43.09,96.05 96.05,96.05 52.96,0 96.04,-43.09 96.04,-96.05 0,-52.96 -43.08,-96.04 -96.04,-96.04" /><path
         id="path298"
         style="fill:#ffffff;fill-opacity:1;fill-rule:nonzero;stroke:none"
         d="m 8810.31,8346.04 c -30.9,0 -56.04,-25.14 -56.04,-56.04 0,-30.9 25.14,-56.04 56.04,-56.04 30.9,0 56.05,25.14 56.05,56.04 0,30.9 -25.15,56.04 -56.05,56.04 z m 0,-152.08 c -52.96,0 -96.04,43.08 -96.04,96.04 0,52.96 43.08,96.04 96.04,96.04 52.96,0 96.05,-43.08 96.05,-96.04 0,-52.96 -43.09,-96.04 -96.05,-96.04" /><path
         id="path300"
         style="fill:#ffffff;fill-opacity:1;fill-rule:nonzero;stroke:none"
         d="m 1139.28,3824.29 c -30.91,0 -56.05,-25.15 -56.05,-56.05 0,-30.9 25.14,-56.04 56.05,-56.04 30.9,0 56.04,25.14 56.04,56.04 0,30.9 -25.14,56.05 -56.04,56.05 z m 0,-152.09 c -52.96,0 -96.05,43.08 -96.05,96.04 0,52.96 43.09,96.05 96.05,96.05 52.96,0 96.04,-43.09 96.04,-96.05 0,-52.96 -43.08,-96.04 -96.04,-96.04" /><path
         id="path302"
         style="fill:#ffffff;fill-opacity:1;fill-rule:nonzero;stroke:none"
         d="m 5160,4237.93 c -82.3,0 -149.26,-66.95 -149.26,-149.26 0,-82.3 66.96,-149.26 149.26,-149.26 82.3,0 149.26,66.96 149.26,149.26 0,82.31 -66.96,149.26 -149.26,149.26 z m 0,-338.52 c -104.36,0 -189.26,84.91 -189.26,189.26 0,104.36 84.9,189.26 189.26,189.26 104.36,0 189.26,-84.9 189.26,-189.26 0,-104.35 -84.9,-189.26 -189.26,-189.26" /><path
         id="path304"
         style="fill:#ffffff;fill-opacity:1;fill-rule:nonzero;stroke:none"
         d="m 1428.2,8216.97 c -82.3,0 -149.26,-66.96 -149.26,-149.26 0,-82.29 66.96,-149.25 149.26,-149.25 82.3,0 149.26,66.96 149.26,149.25 0,82.3 -66.96,149.26 -149.26,149.26 z m 0,-338.51 c -104.36,0 -189.26,84.9 -189.26,189.25 0,104.36 84.9,189.26 189.26,189.26 104.35,0 189.26,-84.9 189.26,-189.26 0,-104.35 -84.91,-189.25 -189.26,-189.25" /><path
         id="path306"
         style="fill:#ffffff;fill-opacity:1;fill-rule:nonzero;stroke:none"
         d="m 8958.15,5435.04 c -70.48,0 -127.84,-57.34 -127.84,-127.84 0,-70.49 57.36,-127.84 127.84,-127.84 70.49,0 127.85,57.35 127.85,127.84 0,70.5 -57.36,127.84 -127.85,127.84 z m 0,-295.68 c -92.54,0 -167.84,75.29 -167.84,167.84 0,92.55 75.3,167.84 167.84,167.84 92.55,0 167.85,-75.29 167.85,-167.84 0,-92.55 -75.3,-167.84 -167.85,-167.84" /><path
         id="path308"
         style="fill:#ffffff;fill-opacity:1;fill-rule:nonzero;stroke:none"
         d="m 8810.31,1265.84 c -70.49,0 -127.84,-57.35 -127.84,-127.85 0,-70.49 57.35,-127.83 127.84,-127.83 70.49,0 127.84,57.34 127.84,127.83 0,70.5 -57.35,127.85 -127.84,127.85 z m 0,-295.68 c -92.55,0 -167.84,75.29 -167.84,167.83 0,92.55 75.29,167.85 167.84,167.85 92.55,0 167.84,-75.3 167.84,-167.85 0,-92.54 -75.29,-167.83 -167.84,-167.83" /><path
         id="path310"
         style="fill:#ffffff;fill-opacity:1;fill-rule:nonzero;stroke:none"
         d="m 13010,3530.79 c -55.1,0 -100,-44.86 -100,-100 0,-55.14 44.9,-100 100,-100 55.1,0 100,44.86 100,100 0,55.14 -44.9,100 -100,100 z m 0,-240 c -77.2,0 -140,62.8 -140,140 0,77.2 62.8,140 140,140 77.2,0 140,-62.8 140,-140 0,-77.2 -62.8,-140 -140,-140" /></g></g></svg>